<?xml version="1.0" standalone="no"?>
<!DOCTYPE svg PUBLIC "-//W3C//DTD SVG 20010904//EN"
 "http://www.w3.org/TR/2001/REC-SVG-20010904/DTD/svg10.dtd">
<svg version="1.0" xmlns="http://www.w3.org/2000/svg"
 width="1920.000000pt" height="1920.000000pt" viewBox="0 0 1920.000000 1920.000000"
 preserveAspectRatio="xMidYMid meet">
<metadata>
Created by potrace 1.16, written by Peter Selinger 2001-2019
</metadata>
<g transform="translate(0.000000,1920.000000) scale(0.100000,-0.100000)"
fill="#000000" stroke="none">
<path d="M790 15961 c0 -5 15 -36 33 -68 19 -32 67 -116 107 -188 41 -71 86
-148 100 -170 15 -22 37 -60 51 -85 33 -63 157 -278 184 -320 13 -19 42 -71
65 -115 23 -44 46 -84 50 -90 7 -9 112 -189 307 -530 41 -71 105 -182 142
-245 37 -63 87 -149 111 -190 23 -41 93 -163 155 -270 62 -107 139 -240 170
-295 32 -55 89 -154 128 -220 38 -66 120 -208 182 -315 184 -320 196 -340 266
-460 37 -63 91 -158 119 -210 29 -52 68 -118 86 -147 18 -29 45 -75 59 -103
14 -28 32 -53 39 -56 8 -3 60 8 117 25 57 16 167 46 244 66 77 20 141 38 143
40 2 2 -16 37 -41 77 -38 63 -164 282 -236 411 -13 23 -51 89 -85 147 -35 58
-80 137 -101 175 -21 39 -75 133 -120 210 -140 239 -266 457 -313 540 -24 44
-80 140 -123 212 -44 73 -79 135 -79 138 0 3 -13 26 -28 52 -115 193 -168 285
-232 398 -40 72 -81 141 -91 155 -9 14 -39 66 -67 115 -27 50 -80 142 -117
205 -37 63 -86 149 -108 190 -22 41 -46 82 -53 90 -6 8 -50 84 -97 168 l-86
152 1980 0 c1588 0 1979 2 1979 13 0 7 -21 77 -46 157 -25 80 -60 191 -77 248
l-31 102 -2343 0 c-1435 0 -2343 -4 -2343 -9z"/>
<path d="M13796 15918 c-8 -29 -40 -141 -71 -248 -30 -107 -55 -198 -55 -202
0 -4 868 -9 1929 -10 l1930 -3 -46 -75 c-25 -41 -63 -109 -86 -150 -22 -41
-45 -82 -52 -90 -11 -14 -74 -123 -170 -295 -22 -39 -73 -127 -113 -196 -91
-155 -171 -294 -303 -524 -56 -99 -114 -198 -129 -220 -14 -22 -43 -71 -64
-110 -21 -38 -81 -144 -134 -235 -52 -91 -145 -250 -205 -355 -61 -104 -151
-260 -201 -345 -50 -85 -91 -157 -91 -160 0 -3 -39 -70 -86 -150 -48 -80 -94
-161 -104 -180 -10 -19 -53 -93 -96 -165 -43 -71 -79 -136 -81 -144 -2 -9 14
-18 47 -26 60 -15 304 -79 397 -105 l68 -19 24 42 c13 23 50 89 81 147 32 58
66 117 76 131 10 14 48 79 84 145 37 65 97 171 134 234 111 188 250 428 316
545 62 109 81 141 265 456 52 89 98 170 102 181 4 10 50 89 101 176 52 86 114
193 137 237 24 44 48 87 55 95 11 13 96 160 209 360 20 36 49 85 65 110 15 25
54 92 86 150 32 58 82 144 112 193 29 48 53 90 53 93 0 4 22 43 49 88 27 44
98 167 158 271 60 105 135 234 166 287 31 53 57 102 57 107 0 8 -696 11 -2300
11 l-2299 0 -15 -52z"/>
<path d="M2080 15230 c0 -17 37 -85 140 -260 53 -91 130 -223 170 -295 41 -71
86 -148 100 -170 15 -22 44 -71 64 -110 20 -38 68 -122 106 -185 38 -63 83
-142 101 -175 17 -33 49 -87 69 -120 21 -33 67 -112 102 -175 69 -124 204
-356 328 -565 43 -71 91 -158 109 -192 17 -34 50 -93 74 -130 24 -37 79 -131
122 -208 43 -77 99 -174 125 -215 26 -41 59 -97 73 -125 14 -27 69 -125 123
-217 55 -92 125 -214 158 -270 59 -104 106 -185 233 -403 39 -66 87 -151 108
-190 21 -38 66 -116 101 -172 35 -56 73 -122 85 -145 12 -24 65 -117 118 -208
122 -207 278 -475 351 -605 32 -55 115 -199 185 -320 221 -380 270 -466 358
-620 47 -82 101 -176 121 -207 19 -31 56 -94 82 -140 26 -46 66 -117 89 -158
23 -42 58 -100 77 -130 20 -30 49 -82 66 -116 17 -34 73 -131 124 -217 51 -86
131 -223 177 -304 47 -81 90 -155 96 -163 7 -8 27 -42 44 -75 35 -64 128 -227
296 -515 56 -96 155 -267 220 -380 65 -113 146 -252 180 -310 34 -58 88 -152
120 -210 32 -58 79 -139 105 -180 26 -41 60 -100 75 -130 15 -30 72 -129 127
-219 54 -90 111 -187 125 -215 14 -28 68 -121 119 -207 52 -86 94 -159 94
-162 0 -5 38 -71 156 -269 19 -31 34 -59 34 -62 0 -3 31 -57 68 -118 38 -62
84 -140 102 -173 32 -58 95 -166 312 -540 58 -99 127 -218 152 -265 26 -47 64
-112 85 -145 20 -33 53 -89 73 -125 20 -36 60 -105 89 -155 29 -49 102 -175
162 -280 60 -104 128 -221 151 -260 24 -38 78 -133 121 -210 43 -77 84 -147
91 -155 6 -8 29 -48 49 -87 21 -40 43 -73 49 -73 6 1 40 51 75 113 72 125 238
413 373 644 48 83 88 154 88 157 0 4 17 35 38 69 53 84 129 214 186 317 26 47
79 137 117 200 38 63 80 138 94 165 13 28 46 84 72 126 26 41 68 112 93 158
25 45 81 144 126 219 44 75 107 184 139 242 33 58 77 134 99 170 21 36 67 115
101 175 35 61 111 193 170 295 222 383 340 587 379 658 23 40 88 153 146 251
58 99 122 210 143 248 21 37 62 109 93 158 30 50 70 119 88 155 19 36 71 125
115 198 45 73 81 134 81 136 0 2 32 60 71 128 39 67 97 168 128 223 32 55 84
145 116 200 32 55 84 145 115 200 31 55 88 154 127 220 39 66 95 163 126 215
30 52 83 145 118 205 34 61 99 173 144 250 46 77 91 156 100 175 10 19 57 100
105 180 48 80 106 181 130 225 24 44 58 103 76 130 17 28 69 118 116 200 118
209 175 307 328 570 26 44 65 112 87 150 22 39 72 125 111 192 40 68 72 125
72 128 0 3 28 52 62 108 68 113 115 194 161 277 39 71 63 113 102 175 17 28
72 122 122 210 142 250 200 351 273 475 38 63 102 174 142 245 141 246 230
400 278 480 26 44 68 118 94 165 26 47 77 135 113 195 36 61 84 143 106 184
22 41 56 100 76 131 20 31 56 93 81 138 25 46 85 151 134 235 49 84 106 181
126 217 20 36 68 119 107 185 38 66 92 158 118 205 27 47 96 166 153 265 57
99 155 269 218 378 63 109 130 222 149 253 19 30 35 59 35 64 0 7 -2618 10
-7535 10 -5209 0 -7535 -3 -7535 -10z m5157 -1190 l2213 0 0 -124 0 -124 -137
-80 c-76 -44 -299 -172 -495 -286 -197 -113 -517 -298 -710 -410 -352 -203
-573 -330 -806 -465 l-123 -70 -322 183 c-177 101 -707 403 -1177 671 -470
268 -939 535 -1042 594 -103 58 -188 110 -188 115 0 6 116 7 287 3 157 -4
1282 -7 2500 -7z m7533 -4 c0 -3 -134 -81 -297 -174 -274 -156 -642 -365
-1903 -1084 -256 -146 -480 -273 -498 -282 l-34 -17 -206 119 c-114 66 -427
247 -697 403 -269 155 -686 396 -925 534 l-435 251 -3 127 -3 127 2501 0
c1375 0 2500 -2 2500 -4z m-9579 -788 c486 -278 1088 -621 1337 -763 l452
-258 0 -1337 0 -1336 -98 -57 c-55 -31 -101 -57 -104 -57 -4 0 -61 96 -129
213 -67 116 -143 248 -169 292 -26 44 -133 229 -237 410 -310 537 -928 1607
-1028 1780 -51 88 -253 439 -450 780 -197 341 -387 669 -421 728 -35 60 -64
111 -64 114 0 3 6 3 13 0 7 -3 411 -232 898 -509z m9523 110 c-125 -216 -285
-494 -357 -618 -325 -564 -863 -1495 -1100 -1905 -143 -247 -302 -522 -352
-610 -282 -489 -456 -790 -459 -792 -2 -2 -53 25 -114 59 l-112 63 0 1328 0
1327 43 26 c23 14 222 127 442 253 658 374 1930 1098 2085 1187 79 46 146 81
148 79 2 -2 -99 -180 -224 -397z m-6937 -4426 c312 -180 817 -472 1121 -647
l552 -319 0 -1580 c0 -868 -2 -1577 -4 -1575 -2 2 -180 310 -396 684 -530 918
-911 1578 -1158 2005 -795 1376 -952 1649 -952 1657 0 4 49 36 108 69 101 58
108 61 134 48 15 -8 282 -162 595 -342z m4395 286 c59 -35 108 -66 108 -69 0
-3 -47 -86 -103 -185 -247 -427 -417 -722 -612 -1059 -114 -198 -451 -781
-748 -1295 -296 -514 -588 -1018 -647 -1120 -59 -102 -172 -297 -251 -435
l-144 -250 -3 1575 c-2 1251 1 1577 10 1586 11 10 278 164 1238 717 124 71
299 172 390 225 381 220 645 372 649 372 2 0 53 -28 113 -62z"/>
<path d="M11512 5033 c-55 -88 -101 -168 -133 -228 -17 -33 -60 -107 -94 -165
-35 -58 -99 -168 -142 -245 -84 -147 -212 -370 -358 -620 -157 -270 -358 -618
-400 -695 -23 -41 -76 -132 -118 -202 -41 -70 -97 -167 -122 -215 -26 -48 -53
-95 -60 -103 -18 -22 -105 -171 -160 -275 -26 -49 -60 -108 -75 -130 -15 -22
-49 -78 -75 -125 -121 -218 -151 -270 -161 -280 -8 -8 -20 7 -44 52 -18 35
-68 122 -110 193 -42 72 -100 173 -130 225 -29 52 -77 133 -105 180 -29 47
-65 110 -80 139 -15 30 -66 120 -114 200 -48 80 -123 209 -166 286 -43 77 -83
146 -89 154 -6 7 -36 57 -66 111 -30 54 -78 138 -106 187 -28 48 -66 115 -84
148 -18 33 -51 89 -74 125 -22 36 -65 110 -95 165 -52 94 -105 185 -333 575
-50 85 -105 182 -123 215 -32 60 -172 295 -181 304 -3 3 -92 -82 -199 -189
-188 -188 -194 -195 -180 -217 8 -12 65 -109 126 -215 179 -311 333 -577 385
-666 27 -45 74 -125 104 -179 30 -53 70 -121 89 -152 18 -31 52 -90 76 -131
23 -41 73 -127 110 -190 37 -63 83 -144 103 -180 19 -36 56 -99 83 -141 26
-41 60 -102 77 -135 16 -32 60 -108 97 -169 38 -60 79 -130 93 -155 31 -56
183 -318 223 -383 16 -26 28 -50 28 -52 0 -3 33 -61 72 -128 40 -67 103 -174
139 -237 36 -63 111 -191 165 -285 54 -93 136 -235 182 -315 45 -80 87 -153
93 -162 24 -41 20 -45 201 271 36 64 124 215 194 336 71 121 149 258 175 305
26 47 85 150 132 230 95 163 132 226 243 420 43 74 112 194 155 265 42 72 94
162 115 200 21 39 66 117 100 175 34 58 115 197 180 310 65 113 158 274 207
358 96 165 207 356 298 517 31 55 92 162 136 237 43 75 99 172 124 215 25 43
54 93 64 110 l20 33 -185 185 c-101 101 -187 185 -190 185 -4 0 -20 -21 -37
-47z"/>
</g>
</svg>
